<svg width="20" height="23" viewBox="0 0 20 23" fill="none" xmlns="http://www.w3.org/2000/svg">
<path d="M18.5262 21.7717C18.3531 21.7717 18.18 21.6852 18.0501 21.5986L10.0876 13.5496L2.12514 21.5986C1.95204 21.7717 1.64912 21.8583 1.43274 21.7285C1.1731 21.6419 1 21.3823 1 21.1226V1.64912C1 1.30292 1.30292 1 1.64912 1H18.5262C18.8724 1 19.1753 1.30292 19.1753 1.64912V21.1226C19.1753 21.3823 19.0022 21.6419 18.7858 21.7285C18.6993 21.7717 18.6127 21.7717 18.5262 21.7717ZM10.0876 12.2514C10.4338 12.2514 10.78 12.3812 11.0397 12.6408L17.877 19.5648V2.29823H2.29823V19.5648L9.1356 12.6408C9.39525 12.3812 9.74144 12.2514 10.0876 12.2514Z" fill="#B6B7B6" stroke="black" stroke-width="0.519294"/>
</svg>
