<svg width="23" height="23" viewBox="0 0 23 23" fill="none" xmlns="http://www.w3.org/2000/svg">
<path fill-rule="evenodd" clip-rule="evenodd" d="M22.1653 21.7198L20.893 16.7216C21.7109 15.2222 22.1653 13.4955 22.1653 11.678C22.1653 5.77101 17.3943 1 11.4873 1C5.58034 1 0.809326 5.77101 0.809326 11.678C0.809326 17.5849 5.58034 22.356 11.4873 22.356C13.3048 22.356 15.0315 21.9016 16.5309 21.0837L21.5291 22.356C21.8926 22.4468 22.2562 22.0833 22.1653 21.7198ZM20.8021 11.678C20.8021 13.4955 20.3478 14.8587 19.6207 16.2218C19.5299 16.4035 19.4844 16.6307 19.5299 16.8579L20.4841 20.6747L16.7127 19.7205C16.4855 19.6751 16.2583 19.6751 16.0766 19.8114C15.2587 20.2658 13.7138 20.9928 11.5327 20.9928C6.35279 20.9928 2.17247 16.8125 2.17247 11.678C2.17247 6.54346 6.35279 2.36315 11.4873 2.36315C16.6218 2.36315 20.8021 6.54346 20.8021 11.678Z" fill="#B6B7B6" stroke="black" stroke-width="0.519294"/>
</svg>
