<svg width="25" height="25" viewBox="0 0 25 25" fill="none" xmlns="http://www.w3.org/2000/svg">
<path d="M17.2263 18.1053C16.6234 16.9224 15.6836 16.0068 14.5638 15.5411V13.7294L14.566 13.2997C14.5652 13.2997 14.5645 13.2997 14.5638 13.2998V13.2885C14.0185 13.3949 13.4555 13.4523 12.8796 13.4523C12.3446 13.4523 11.8219 13.4008 11.313 13.3085C11.2776 13.3013 11.2417 13.2962 11.2065 13.2885V13.2905C11.2027 13.2897 11.199 13.2892 11.1952 13.2885V15.5411C10.6207 15.78 10.0944 16.1385 9.6359 16.5901C9.61952 16.6061 9.60272 16.6212 9.58654 16.6373C9.53609 16.6883 9.48772 16.7418 9.43911 16.7949C9.40593 16.8311 9.37201 16.866 9.33959 16.9034C9.31088 16.9364 9.28387 16.9712 9.25583 17.0048C9.20548 17.0655 9.15513 17.1259 9.10675 17.1892C9.10261 17.1947 9.09875 17.2004 9.09452 17.2059C8.88785 17.4783 8.69896 17.7742 8.53271 18.0941H8.53888C8.53686 18.0979 8.53464 18.1016 8.53271 18.1053H17.2263Z" fill="#7B7A7A"/>
<path d="M6.24668 19.5753V24.0631L6.24658 24.0813H6.24668V24.0927H19.5123V19.5753H6.24668Z" fill="#7B7A7A"/>
<path d="M24.2825 1.38284C23.9048 0.95491 23.3674 0.709371 22.8083 0.709371H20.5617V0.0127052V0.0113876V0H5.19707V0.709324H2.95047C2.39112 0.709324 1.85379 0.954863 1.47592 1.38279C1.0168 1.90304 0.818645 2.65538 0.916521 3.50403C0.933885 3.87681 1.12202 5.82465 3.13809 7.21064C4.30188 8.01097 5.41673 8.36959 6.40566 8.5253C7.77067 10.6583 10.1589 12.0732 12.8795 12.0732C15.5995 12.0732 17.9878 10.6583 19.3529 8.5253C20.3418 8.36978 21.4567 8.01097 22.6207 7.21064C24.6366 5.8247 24.8249 3.87681 24.8422 3.50403C24.94 2.65538 24.7419 1.90304 24.2825 1.38284ZM23.2429 3.34174L23.237 3.38183L23.2369 3.43034C23.2356 3.48898 23.1845 4.8729 21.7101 5.88644C21.2877 6.17687 20.8803 6.39083 20.4847 6.55388C20.3983 6.58734 20.3121 6.62117 20.2234 6.65002C20.4429 5.93552 20.5617 5.1773 20.5617 4.39095V2.31638H22.8084C22.8789 2.31638 22.983 2.33902 23.0778 2.44617C23.2321 2.62117 23.2923 2.94745 23.2429 3.34174ZM12.7836 7.304L11.1997 8.18536C11.1328 8.22268 11.0504 8.21774 10.9885 8.17247C10.9267 8.12781 10.8963 8.05078 10.9111 7.97578L11.2599 6.19701C11.273 6.13028 11.2508 6.06135 11.2009 6.01523L9.87328 4.78095C9.81723 4.7289 9.79643 4.64896 9.82015 4.57616C9.84387 4.50336 9.90763 4.4508 9.98362 4.44163L11.7829 4.22362C11.8504 4.21552 11.9089 4.17289 11.9377 4.1111L12.7009 2.46743C12.7333 2.39793 12.8027 2.35346 12.8795 2.35346C12.956 2.35346 13.0255 2.39793 13.0577 2.46743L13.821 4.1111C13.8498 4.17284 13.9082 4.21552 13.9757 4.22362L15.775 4.44163C15.851 4.4508 15.9148 4.50336 15.9384 4.57616C15.9621 4.64896 15.9414 4.7289 15.8854 4.78095L14.5577 6.01523C14.5079 6.06135 14.4852 6.13028 14.4984 6.19701L14.8475 7.97578C14.8622 8.05078 14.832 8.12777 14.7699 8.17247C14.708 8.21769 14.6259 8.22263 14.5588 8.18536L12.9747 7.304C12.9155 7.27111 12.8431 7.27111 12.7836 7.304ZM4.04839 5.88644C2.57431 4.8729 2.5233 3.48898 2.52198 3.43877L2.5217 3.39006L2.51554 3.34174C2.46646 2.94745 2.52645 2.62121 2.68098 2.44621C2.77557 2.33907 2.87966 2.31643 2.95043 2.31643H5.19698V4.39095C5.19698 5.06131 5.2877 5.70946 5.44906 6.32928C5.47536 6.43789 5.49969 6.54711 5.53023 6.65519C5.05544 6.48438 4.56252 6.23973 4.04839 5.88644Z" fill="#7B7A7A"/>
</svg>
