<svg width="25" height="25" viewBox="0 0 25 25" fill="none" xmlns="http://www.w3.org/2000/svg">
<path fill-rule="evenodd" clip-rule="evenodd" d="M17.8659 16.0155C19.2153 14.3286 20.0222 12.1888 20.0222 9.8606C20.0222 4.41474 15.6075 0 10.1616 0C4.71576 0 0.301025 4.41474 0.301025 9.8606C0.301025 15.3064 4.71576 19.7212 10.1616 19.7212C12.4899 19.7212 14.6296 18.9143 16.3165 17.5649L22.5234 23.7718C22.9512 24.1997 23.645 24.1997 24.0729 23.7718C24.5007 23.344 24.5007 22.6502 24.0729 22.2223L17.8659 16.0155ZM10.1616 17.5409C5.91988 17.5409 2.48127 14.1023 2.48127 9.8606C2.48127 5.61886 5.91988 2.18025 10.1616 2.18025C14.4034 2.18025 17.8419 5.61886 17.8419 9.8606C17.8419 14.1023 14.4034 17.5409 10.1616 17.5409Z" fill="#7B7A7A"/>
</svg>
