<svg width="25" height="24" viewBox="0 0 25 24" fill="none" xmlns="http://www.w3.org/2000/svg">
<path d="M8.74736 4.79548L9.14072 4.09005C10.6606 1.36337 11.4207 0 12.5569 0C13.693 0 14.4531 1.36334 15.973 4.09005L16.3664 4.79551C16.7981 5.57032 17.0141 5.95773 17.3509 6.21335C17.6876 6.46897 18.1071 6.56387 18.9459 6.75364L19.7093 6.92641C22.6611 7.59426 24.1369 7.92817 24.488 9.05735C24.8391 10.1863 23.833 11.3628 21.8209 13.716L21.3001 14.3246C20.7284 14.9933 20.4425 15.3276 20.3139 15.7413C20.1853 16.1549 20.2285 16.601 20.3149 17.4931L20.3936 18.3053C20.6979 21.4447 20.8498 23.0145 19.9306 23.7122C19.0114 24.4101 17.6297 23.7739 14.8662 22.5014L14.1512 22.1721C13.3657 21.8107 12.973 21.6297 12.5569 21.6297C12.1407 21.6297 11.7481 21.8107 10.9626 22.1721L10.2476 22.5014C7.48407 23.7739 6.1023 24.4101 5.18305 23.7122C4.26383 23.0145 4.41594 21.4447 4.72016 18.3053L4.79886 17.4931C4.88531 16.601 4.92853 16.1549 4.79991 15.7413C4.6713 15.3276 4.38539 14.9933 3.81359 14.3246L3.293 13.716C1.28077 11.3628 0.274672 10.1863 0.625792 9.05735C0.976911 7.92817 2.45274 7.59424 5.40433 6.92641L6.16794 6.75364C7.00671 6.56387 7.42609 6.46897 7.76288 6.21335C8.0996 5.95773 8.3156 5.57032 8.74736 4.79548Z" fill="#7B7A7A"/>
</svg>
