<svg width="25" height="25" viewBox="0 0 25 25" fill="none" xmlns="http://www.w3.org/2000/svg">
<path d="M13.4476 20.083L13.4727 20.055C14.1495 20.6474 14.9947 21.0522 15.9272 21.188L16.1439 21.2145L16.1437 24.0943C14.4205 23.9879 12.8516 23.3114 11.6231 22.2512L11.4414 22.0893L13.4476 20.083ZM19.9062 19.9339L21.8621 21.8908C21.8876 21.9163 21.9152 21.9383 21.9453 21.9562C20.7325 23.1295 19.133 23.9054 17.3566 24.0744L17.1017 24.0943L17.1016 21.2145C18.1829 21.1071 19.1583 20.6397 19.9062 19.9339ZM0.226067 18.3592C1.53351 19.944 4.16231 20.9474 7.14592 20.9474C7.64311 20.9474 8.13041 20.9196 8.60342 20.8658C8.95322 21.5165 9.37993 22.1206 9.87099 22.6656C9.03183 22.8714 8.10994 22.9842 7.14592 22.9842C3.33477 22.9842 0.182095 21.2203 0.169471 18.9045C0.16847 18.719 0.187808 18.537 0.226067 18.3592ZM11.838 16.9318L11.8615 16.9307C11.944 17.7643 12.2406 18.535 12.6953 19.1871L12.8232 19.362L12.7709 19.4063L10.7787 21.3989C9.79938 20.2429 9.157 18.7924 9.00298 17.1991L8.98185 16.9322L11.838 16.9318ZM21.3841 16.9307L21.4076 16.9318L24.2638 16.9322C24.1685 18.4769 23.6151 19.8976 22.7379 21.0602L22.5797 21.2627L22.5388 21.2141L20.5343 19.21C20.9981 18.553 21.3006 17.7741 21.3841 16.9307ZM16.6228 12.6255C18.7369 12.6255 20.4507 14.3393 20.4507 16.4533C20.4507 18.5674 18.7369 20.2812 16.6228 20.2812C14.5088 20.2812 12.795 18.5674 12.795 16.4533C12.795 14.3393 14.5088 12.6255 16.6228 12.6255ZM0.226067 15.4217C1.53351 17.0066 4.16231 18.01 7.14592 18.01C7.30903 18.01 7.47101 18.007 7.63184 18.0011C7.7439 18.6965 7.93487 19.3664 8.19477 20.0008C7.85286 20.0314 7.50227 20.0468 7.14592 20.0468C3.33477 20.0468 0.182095 18.2829 0.169471 15.967C0.16847 15.7815 0.187808 15.5995 0.226067 15.4217ZM16.6122 14.0609C16.4459 14.0609 16.3072 14.1812 16.2784 14.3392L16.273 14.4V14.6152L16.1566 14.6456C15.6282 14.8037 15.307 15.1891 15.307 15.6806C15.307 16.3386 15.8784 16.6153 16.376 16.7827C16.7834 16.9204 16.9421 17.0442 16.9421 17.2243C16.9421 17.4094 16.7589 17.5198 16.4522 17.5198C16.2453 17.5198 16.0343 17.4818 15.8244 17.4068C15.731 17.3733 15.6244 17.381 15.5368 17.4274C15.4659 17.465 15.4101 17.5254 15.3779 17.5976L15.3583 17.6538L15.347 17.6987L15.3356 17.7671C15.3213 17.9491 15.4337 18.1225 15.6133 18.1801C15.7587 18.2267 15.9199 18.2615 16.0822 18.282L16.2443 18.2977V18.5051L16.2497 18.566C16.2785 18.724 16.4173 18.8441 16.5834 18.8441C16.7497 18.8441 16.8883 18.724 16.917 18.5658L16.9226 18.5049V18.2508L17.0361 18.2237C17.5907 18.0709 17.9403 17.6607 17.9403 17.1441C17.9403 16.6018 17.6431 16.2653 16.9474 16.02C16.4629 15.8376 16.2994 15.7275 16.2994 15.5834C16.2994 15.415 16.453 15.3224 16.7323 15.3224C16.908 15.3224 17.0728 15.3466 17.2356 15.3964C17.3302 15.4256 17.4359 15.4144 17.5226 15.366C17.5922 15.3269 17.6472 15.2658 17.6792 15.1934L17.6987 15.1371L17.7039 15.1165L17.7152 15.0472C17.7284 14.8631 17.6089 14.6888 17.4243 14.6399C17.3292 14.6149 17.227 14.5957 17.1186 14.5825L16.9514 14.5672V14.4L16.9459 14.3392C16.9171 14.1812 16.7785 14.0609 16.6122 14.0609ZM0.226067 12.4843C1.53351 14.0691 4.16231 15.0725 7.14592 15.0725C7.30828 15.0725 7.4696 15.0696 7.6297 15.0637C7.55258 15.5384 7.51303 16.0262 7.51303 16.5231C7.51303 16.7179 7.51917 16.9112 7.53113 17.103C7.4039 17.1073 7.27529 17.1093 7.14592 17.1093C3.33477 17.1093 0.182095 15.3454 0.169471 13.0296C0.16847 12.8441 0.187808 12.6621 0.226067 12.4843ZM10.7787 11.5078L12.7709 13.5004L12.8232 13.5447C12.3402 14.1748 12.0103 14.9285 11.8893 15.7501L11.8616 15.9758L11.838 15.9749L8.98185 15.9743C9.0867 14.2762 9.74502 12.728 10.7787 11.5078ZM20.3429 13.4439L22.3801 11.407C23.4066 12.5772 24.0821 14.0631 24.242 15.7001L24.2638 15.9743L21.4076 15.9749L21.3841 15.9758C21.2968 15.095 20.9707 14.2844 20.4714 13.6097L20.3429 13.4439ZM0.226067 9.54684C1.53351 11.1317 4.16231 12.1351 7.14592 12.1351C7.66974 12.1351 8.18263 12.1042 8.67935 12.0446C8.31005 12.7013 8.02035 13.4085 7.82195 14.153C7.5997 14.1656 7.37403 14.1719 7.14592 14.1719C3.33477 14.1719 0.182095 12.408 0.169471 10.0921C0.16847 9.90662 0.187808 9.72465 0.226067 9.54684ZM16.1437 8.81238L16.1443 11.6685C16.1443 11.6767 16.1445 11.6848 16.1453 11.6921C15.199 11.7858 14.3339 12.1552 13.6325 12.7185L13.4736 12.8518L13.4476 12.8237L11.4414 10.8174C12.695 9.66432 14.3343 8.92411 16.1437 8.81238ZM17.1013 11.6685L17.1017 8.81238C18.7757 8.9157 20.3041 9.55697 21.5162 10.5655L21.705 10.7277L19.6695 12.7637C19.0119 12.2201 18.2066 11.8489 17.3228 11.7194L17.1002 11.692L17.1013 11.6685ZM0.225977 6.39052C1.53394 7.9754 4.16259 8.97861 7.14592 8.97861C10.1293 8.97861 12.7578 7.97541 14.0657 6.39099C14.104 6.5683 14.1233 6.75021 14.1223 6.93567C14.1207 7.21624 14.0732 7.48871 13.9839 7.75092C12.213 8.29611 10.6716 9.36304 9.53774 10.7718C8.79045 10.9301 7.98412 11.0154 7.14592 11.0154C3.33477 11.0154 0.182095 9.25147 0.169471 6.93565C0.16847 6.75019 0.18774 6.56828 0.225977 6.39052ZM6.98237 8.16213L7.14592 8.16389L7.02809 8.16333L6.98237 8.16213ZM7.14592 0C10.9804 0 14.1348 1.76495 14.1223 4.08415C14.1196 4.57035 13.9786 5.03223 13.7221 5.45856L13.6959 5.49863L13.6438 5.58129L13.6412 5.58405L13.6426 5.58114L13.6339 5.59499L13.5875 5.66331C13.4721 5.82717 13.339 5.98489 13.1898 6.13611L13.1411 6.18424C13.1114 6.21395 13.0808 6.24308 13.0496 6.27196C13.0382 6.28205 13.0266 6.29278 13.0149 6.30347C12.9838 6.33217 12.9522 6.36006 12.92 6.38769C12.9071 6.39843 12.8943 6.40927 12.8815 6.42007C12.6635 6.60423 12.4198 6.7768 12.154 6.93627C12.1288 6.95115 12.1032 6.96627 12.0774 6.98128L11.9912 7.03079L11.9229 7.06843C11.8092 7.13072 11.692 7.19058 11.5714 7.24809C11.5578 7.25443 11.5445 7.26072 11.5312 7.26698C11.494 7.28455 11.4564 7.30186 11.4185 7.31892C11.3795 7.33636 11.3399 7.35382 11.2999 7.37104C11.284 7.378 11.2681 7.38476 11.2522 7.39147C11.2122 7.40829 11.1717 7.42501 11.1309 7.44149C11.0978 7.45494 11.0649 7.46803 11.0317 7.48095C11.0107 7.48903 10.9894 7.49724 10.9681 7.50537L10.9387 7.51654L10.8653 7.54374C10.8043 7.56596 10.7425 7.58782 10.68 7.60912C10.6376 7.62362 10.5952 7.63772 10.5525 7.65156C10.545 7.65395 10.5374 7.65638 10.5299 7.65881C10.4674 7.67895 10.4044 7.6985 10.3408 7.7175C10.3305 7.72053 10.3203 7.72355 10.31 7.72656C10.2503 7.7442 10.19 7.76136 10.1292 7.77801C10.114 7.78213 10.0987 7.7863 10.0834 7.79043C9.87164 7.84735 9.65444 7.89817 9.4323 7.94265L9.36546 7.9558C9.30963 7.96662 9.25356 7.97701 9.19727 7.987C9.16974 7.99187 9.1423 7.99663 9.11474 8.0013C9.07592 8.00789 9.03674 8.01433 8.99745 8.02055L8.87873 8.03871C8.84131 8.04424 8.80341 8.04965 8.76536 8.05487L8.66625 8.06801C8.53651 8.08466 8.40504 8.09926 8.2724 8.11168C8.21193 8.11735 8.15101 8.12258 8.08987 8.12735L7.96535 8.13642C7.92889 8.13888 7.89217 8.14118 7.85537 8.14333C7.8219 8.14528 7.7883 8.14708 7.75466 8.14876C7.70467 8.15126 7.65459 8.15345 7.6043 8.15534L7.51339 8.15839C7.46968 8.1597 7.42554 8.16079 7.3813 8.16164L7.26374 8.16333L7.14592 8.16389L6.9436 8.16142L6.77809 8.15839L6.68789 8.15536C6.63722 8.15346 6.5871 8.15126 6.53709 8.14876C6.50389 8.14711 6.47072 8.14532 6.43762 8.14339C6.39982 8.14119 6.36184 8.1388 6.32399 8.13624C6.28456 8.13357 6.24563 8.13074 6.20678 8.12773C6.14411 8.12286 6.08151 8.11751 6.01917 8.11166C5.88671 8.09925 5.75527 8.08466 5.62514 8.06797C5.59489 8.06409 5.56435 8.06003 5.53387 8.05587C5.49076 8.04998 5.44791 8.0439 5.40526 8.03758C5.37165 8.03259 5.33835 8.02748 5.30508 8.02225C5.28315 8.01879 5.26105 8.01526 5.23904 8.01166L5.09456 7.98702C5.03816 7.97702 4.98224 7.96663 4.92656 7.95585L4.85926 7.94261C4.63739 7.89818 4.42019 7.84734 4.20864 7.79049C4.19308 7.78631 4.17778 7.78216 4.16247 7.77797C4.10183 7.76136 4.04145 7.7442 3.98163 7.72656L3.95115 7.71752C3.88741 7.69849 3.82434 7.67895 3.76184 7.65885C3.75433 7.65643 3.74681 7.654 3.73929 7.65156C3.69661 7.63772 3.65415 7.62361 3.61202 7.60925C3.54928 7.58787 3.48742 7.56603 3.42619 7.54363C3.40191 7.53476 3.37747 7.5257 3.3531 7.51654L3.32378 7.50544L3.25978 7.48084C3.22689 7.46803 3.1939 7.45496 3.16112 7.44171C3.12003 7.42511 3.07963 7.40838 3.03946 7.3914C3.02374 7.38475 3.00791 7.378 2.99214 7.37121C2.95197 7.35393 2.9123 7.33647 2.87297 7.31876L2.76049 7.26705L2.72074 7.24826C2.5998 7.19059 2.48257 7.13071 2.36887 7.06858L2.30042 7.03068C2.27175 7.01458 2.24315 6.99823 2.21477 6.98173C2.18453 6.96415 2.15499 6.94666 2.12573 6.92901C2.10335 6.91552 2.08065 6.90167 2.05817 6.88772L2.01102 6.85817L1.94961 6.8188C1.80995 6.72805 1.6772 6.63348 1.55175 6.53533C1.5231 6.51293 1.49467 6.4902 1.46663 6.46729C1.45375 6.45675 1.44094 6.44617 1.42822 6.43555C1.40266 6.41423 1.37754 6.39281 1.35273 6.37123C1.3288 6.35042 1.30491 6.32929 1.28142 6.30801L1.24185 6.27172C1.21099 6.24309 1.18042 6.21394 1.1505 6.18455L1.10201 6.13611C1.03047 6.06358 0.962565 5.98954 0.898533 5.91409C0.887946 5.90164 0.877589 5.88928 0.867338 5.87688C0.842419 5.84673 0.818034 5.81626 0.794254 5.78557L0.759138 5.73954C0.743973 5.71928 0.728944 5.69879 0.714217 5.67822C0.696855 5.65398 0.68011 5.62984 0.663682 5.60558C0.658965 5.59859 0.654175 5.59146 0.649422 5.58432L0.594519 5.49907C0.32218 5.061 0.172201 4.5855 0.169471 4.08413C0.156978 1.76494 3.31148 0 7.14592 0ZM6.9436 8.16142L6.95314 8.16213L6.91062 8.16164L6.9436 8.16142Z" fill="#7B7A7A"/>
</svg>
