<svg width="26" height="27" viewBox="0 0 26 27" fill="none" xmlns="http://www.w3.org/2000/svg">
<path d="M24.8541 20.0563L21.2306 13.7987C21.9721 12.4369 22.3584 10.9102 22.3538 9.3596C22.3538 6.87728 21.3677 4.49663 19.6124 2.74136C17.8571 0.986098 15.4765 0 12.9942 0C10.5119 0 8.1312 0.986098 6.37594 2.74136C4.62067 4.49663 3.63457 6.87728 3.63457 9.3596C3.62997 10.9102 4.01625 12.4369 4.75772 13.7987L1.13422 20.0563C1.01664 20.2599 0.954846 20.491 0.955079 20.7262C0.955311 20.9613 1.01756 21.1923 1.13554 21.3957C1.25353 21.5991 1.42307 21.7678 1.62708 21.8848C1.83108 22.0018 2.06233 22.0629 2.29748 22.0619H6.13492L8.08707 25.3512C8.15288 25.4602 8.23392 25.5592 8.32774 25.6453C8.57561 25.8842 8.90607 26.0183 9.25033 26.0197H9.43753C9.63939 25.9921 9.83226 25.9187 10.0014 25.8051C10.1706 25.6916 10.3116 25.5409 10.4136 25.3645L12.9942 20.9254L15.5748 25.4046C15.6783 25.5785 15.8199 25.7266 15.989 25.8378C16.1581 25.9489 16.3502 26.0203 16.5508 26.0464H16.738C17.0869 26.0485 17.4228 25.9142 17.674 25.6721C17.7639 25.5909 17.8406 25.4961 17.9013 25.3913L19.8534 22.102H23.6909C23.9265 22.103 24.1581 22.0416 24.3624 21.9242C24.5667 21.8068 24.7363 21.6375 24.8541 21.4335C24.9791 21.2255 25.0451 20.9875 25.0451 20.7449C25.0451 20.5023 24.9791 20.2643 24.8541 20.0563ZM9.23696 22.102L8.04696 20.1098C7.92978 19.9121 7.76364 19.748 7.56457 19.6332C7.36549 19.5185 7.1402 19.4569 6.91043 19.4546H4.59727L6.50931 16.1386C7.82597 17.4074 9.48542 18.2627 11.2827 18.5989L9.23696 22.102ZM12.9942 16.045C11.6719 16.045 10.3794 15.6529 9.27995 14.9183C8.18053 14.1837 7.32365 13.1396 6.81764 11.918C6.31164 10.6964 6.17924 9.35219 6.4372 8.05534C6.69516 6.75849 7.33189 5.56726 8.26686 4.63229C9.20184 3.69732 10.3931 3.06059 11.6899 2.80263C12.9868 2.54467 14.331 2.67707 15.5526 3.18307C16.7742 3.68908 17.8183 4.54596 18.5529 5.64538C19.2875 6.74479 19.6796 8.03735 19.6796 9.3596C19.6796 11.1327 18.9753 12.8332 17.7215 14.0869C16.4677 15.3407 14.7673 16.045 12.9942 16.045ZM19.0779 19.4546C18.8481 19.4569 18.6229 19.5185 18.4238 19.6332C18.2247 19.748 18.0586 19.9121 17.9414 20.1098L16.7514 22.102L14.719 18.5588C16.51 18.2157 18.1633 17.3612 19.479 16.0985L21.3911 19.4145L19.0779 19.4546Z" fill="#7B7A7A"/>
</svg>
