<svg width="17" height="17" viewBox="0 0 17 17" fill="none" xmlns="http://www.w3.org/2000/svg">
<path d="M1.98956 11.8168C4.02668 15.3451 8.5384 16.5541 12.0668 14.517C13.505 13.6866 14.5578 12.4451 15.1625 11.0266C16.0413 8.96509 15.9737 6.52989 14.767 4.43974C13.5602 2.3496 11.4851 1.07339 9.26039 0.803729C7.72958 0.618175 6.12797 0.909205 4.68975 1.73956C1.16137 3.77668 -0.0475426 8.2884 1.98956 11.8168Z" stroke="#C5C5C5" stroke-width="1.10655"/>
<path d="M12.0298 14.4529C12.0298 14.4529 11.3371 9.59058 9.85411 7.0219C8.37104 4.45321 4.72693 1.80396 4.72693 1.80396" stroke="#C5C5C5" stroke-width="1.10655" stroke-linecap="round"/>
<path d="M15.655 8.55653C11.6633 7.68088 6.20885 11.336 5.11584 14.6333" stroke="#C5C5C5" stroke-width="1.10655" stroke-linecap="round"/>
<path d="M11.6349 1.64307C10.5373 4.90449 5.18761 8.50618 1.2146 7.7237" stroke="#C5C5C5" stroke-width="1.10655" stroke-linecap="round"/>
</svg>
