<svg width="18" height="18" viewBox="0 0 18 18" fill="none" xmlns="http://www.w3.org/2000/svg">
<path d="M4.96364 13.4019L1.38086 14.1185L2.09727 10.5355L2.09847 10.5296C2.16031 10.2211 2.19142 10.066 2.2482 9.92126C2.29898 9.79197 2.36463 9.66911 2.44407 9.55519C2.53344 9.42709 2.6459 9.31461 2.87034 9.09014L2.87155 9.08893L10.2277 1.73289C11.2047 0.755704 12.7892 0.755704 13.7664 1.73289C14.7435 2.71009 14.7435 4.29443 13.7664 5.27162L6.41028 12.6277C6.18504 12.8529 6.07233 12.9656 5.94405 13.0551C5.8301 13.1345 5.70731 13.2003 5.57797 13.251C5.43245 13.3081 5.27633 13.3393 4.96429 13.4017L4.96364 13.4019Z" stroke="#B6B7B6" stroke-width="1.29311" stroke-linecap="round" stroke-linejoin="round"/>
<rect y="16.1899" width="17.2612" height="1.42923" rx="0.714615" fill="#B6B7B6"/>
</svg>
