<svg width="20" height="19" viewBox="0 0 20 19" fill="none" xmlns="http://www.w3.org/2000/svg">
<path d="M11.435 14.2344L9.78154 12.5948C8.98371 11.8035 8.58474 11.4079 8.127 11.2633C7.72437 11.1361 7.2916 11.1408 6.89182 11.2767C6.43725 11.4312 6.04697 11.8354 5.26642 12.6436L1.30493 16.5564M11.435 14.2344L11.7734 13.8989C12.5722 13.1067 12.9716 12.7106 13.4299 12.566C13.8329 12.4389 14.266 12.4439 14.6661 12.5803C15.1208 12.7353 15.5111 13.1405 16.2915 13.9508L17.1207 14.7855M11.435 14.2344L15.4109 18.2181M1.30493 16.5564C1.33569 16.8062 1.38807 17.0037 1.47731 17.1788C1.66736 17.5518 1.97064 17.8551 2.34366 18.0451C2.76772 18.2612 3.32285 18.2612 4.43313 18.2612H13.9488C14.5974 18.2612 15.0566 18.2612 15.4109 18.2181M1.30493 16.5564C1.26123 16.2016 1.26123 15.741 1.26123 15.0893V5.57365C1.26123 4.46337 1.26123 3.90824 1.47731 3.48418C1.66736 3.11115 1.97064 2.80788 2.34366 2.61782C2.76772 2.40175 3.32285 2.40175 4.43313 2.40175L9.68658 2.40164M17.1207 14.7855V15.0893C17.1207 16.1996 17.1207 16.7548 16.9046 17.1788C16.7146 17.5518 16.4113 17.8551 16.0383 18.0451C15.862 18.135 15.6629 18.1875 15.4109 18.2181M17.1207 14.7855V9.83577M11.1734 8.34914L13.1805 7.94766C13.3556 7.91265 13.4431 7.89516 13.5247 7.86315C13.5971 7.83474 13.6659 7.7979 13.7298 7.75339C13.8016 7.70326 13.8648 7.64015 13.9909 7.51394L18.1119 3.39301C18.6593 2.84558 18.6593 1.95801 18.1119 1.41057C17.5645 0.863143 16.6768 0.863143 16.1295 1.41057L12.0085 5.53151C11.8823 5.65771 11.8192 5.72082 11.769 5.79272C11.7245 5.85653 11.6877 5.92536 11.6593 5.99779C11.6273 6.07938 11.6098 6.1669 11.5747 6.34191L11.1734 8.34914Z" stroke="#B6B7B6" stroke-width="1.42735" stroke-linecap="round" stroke-linejoin="round"/>
</svg>
