<svg width="19" height="20" viewBox="0 0 19 20" fill="none" xmlns="http://www.w3.org/2000/svg">
<path fill-rule="evenodd" clip-rule="evenodd" d="M9.48022 0.693359C14.5465 0.693359 18.6535 4.8004 18.6535 9.86669C18.6535 14.933 14.5465 19.04 9.48022 19.04C4.41393 19.04 0.306885 14.933 0.306885 9.86669C0.306885 4.8004 4.41393 0.693359 9.48022 0.693359ZM9.48006 2.98671C5.68034 2.98671 2.60006 6.06699 2.60006 9.86671C2.60006 13.6664 5.68034 16.7467 9.48006 16.7467C13.2798 16.7467 16.3601 13.6664 16.3601 9.86671C16.3601 6.06699 13.2798 2.98671 9.48006 2.98671ZM12.2535 6.4716L7.97306 10.7521L6.27691 9.05593L6.16889 8.96054C5.71906 8.61077 5.06864 8.64257 4.65528 9.05593C4.20748 9.50373 4.20748 10.2298 4.65528 10.6776L7.16224 13.1845L7.27026 13.2799C7.72009 13.6297 8.37052 13.5979 8.78387 13.1845L13.8752 8.09323L13.9705 7.98521C14.3203 7.53538 14.2885 6.88495 13.8752 6.4716C13.4274 6.0238 12.7013 6.0238 12.2535 6.4716Z" fill="#FF0C8F"/>
</svg>
