<svg width="25" height="22" viewBox="0 0 25 22" fill="none" xmlns="http://www.w3.org/2000/svg">
<path d="M23.877 1.38947C23.731 1.14605 23.4876 1 23.2442 1H1.33646C1.04436 1.04868 0.752253 1.24342 0.654885 1.48684C0.557517 1.73026 0.606201 2.07104 0.800936 2.31446L8.54166 9.90913L11.2193 20.9117C11.2679 21.2038 11.5114 21.3985 11.8035 21.4472H11.9008C12.1443 21.4472 12.3877 21.3011 12.5337 21.1064L23.8284 2.11973C24.0231 1.92499 24.0231 1.63289 23.877 1.38947ZM3.13776 2.5092H20.4205L9.36928 8.64335L3.13776 2.5092ZM12.2416 18.8669L10.0995 9.90913L21.2481 3.72629L12.2416 18.8669Z" fill="#B6B7B6" stroke="black" stroke-width="0.519294"/>
</svg>
