<svg width="25" height="22" viewBox="0 0 25 22" fill="none" xmlns="http://www.w3.org/2000/svg">
<path d="M24.2708 1.59797C24.1248 1.35455 23.8814 1.2085 23.638 1.2085H1.73026C1.43815 1.25718 1.14605 1.45191 1.04868 1.69533C0.951316 1.93875 1 2.27954 1.19474 2.52296L8.93546 10.1176L11.6131 21.1202C11.6617 21.4123 11.9052 21.607 12.1973 21.6557H12.2946C12.5381 21.6557 12.7815 21.5096 12.9275 21.3149L24.2222 2.32822C24.4169 2.13349 24.4169 1.84139 24.2708 1.59797ZM3.53156 2.71769H20.8143L9.76308 8.85185L3.53156 2.71769ZM12.6354 19.0754L10.4933 10.1176L21.6419 3.93479L12.6354 19.0754Z" fill="#6AFF37" stroke="#FF0C8F" stroke-width="0.519294"/>
</svg>
